<svg width="1000" height="277" viewBox="0 0 1000 277" fill="none" xmlns="http://www.w3.org/2000/svg">
<path d="M321.42 146.115C324.662 144.664 327.386 142.26 329.227 139.222C331.099 135.952 332.034 132.23 331.928 128.463C332.019 124.678 331.108 120.935 329.286 117.615C327.494 114.506 324.803 112.011 321.567 110.457C317.767 108.675 313.602 107.805 309.406 107.919H286.648C286.104 107.919 285.582 108.135 285.197 108.52C284.812 108.904 284.596 109.426 284.596 109.97V168.755C284.596 169.024 284.649 169.29 284.753 169.538C284.856 169.786 285.007 170.011 285.198 170.201C285.389 170.39 285.615 170.54 285.864 170.641C286.113 170.743 286.379 170.794 286.648 170.792H295.857C296.397 170.792 296.916 170.577 297.297 170.195C297.679 169.813 297.894 169.295 297.894 168.755V148.506H307.591L318.926 169.714C319.1 170.04 319.359 170.313 319.676 170.503C319.994 170.693 320.356 170.793 320.726 170.792H330.733C331.077 170.785 331.414 170.691 331.713 170.519C332.011 170.347 332.262 170.103 332.441 169.809C332.621 169.515 332.723 169.18 332.739 168.836C332.755 168.492 332.684 168.15 332.533 167.84L320.829 146.41C321.021 146.262 321.228 146.203 321.42 146.115ZM297.894 118.796H306.853C309.031 118.727 311.201 119.103 313.229 119.903C314.805 120.565 316.128 121.713 317.007 123.18C317.88 124.8 318.308 126.623 318.247 128.463C318.31 130.27 317.882 132.061 317.007 133.644C316.13 135.072 314.807 136.171 313.243 136.772C311.222 137.535 309.071 137.891 306.912 137.82H297.894V118.796Z" fill="#6CAADD"/>
<path d="M361.431 170.792H366.523C366.792 170.794 367.058 170.743 367.307 170.641C367.556 170.54 367.782 170.39 367.973 170.201C368.164 170.012 368.315 169.786 368.418 169.538C368.521 169.29 368.575 169.024 368.575 168.755V131.002H376.692C377.232 131.002 377.75 130.787 378.132 130.406C378.514 130.024 378.729 129.506 378.729 128.965V125.674C378.729 125.134 378.514 124.616 378.132 124.234C377.75 123.852 377.232 123.637 376.692 123.637H368.575V119.431C368.476 117.712 369 116.014 370.05 114.649C370.679 114.041 371.432 113.576 372.258 113.288C373.083 113 373.962 112.895 374.832 112.981C375.658 112.951 376.483 113.04 377.282 113.247C377.483 113.332 377.699 113.373 377.917 113.364C378.134 113.356 378.347 113.3 378.54 113.2C378.734 113.1 378.902 112.958 379.034 112.785C379.166 112.612 379.259 112.412 379.304 112.199L380.47 108.185C380.546 107.92 380.567 107.643 380.533 107.37C380.5 107.097 380.411 106.833 380.274 106.595C380.136 106.357 379.952 106.149 379.732 105.983C379.512 105.818 379.261 105.698 378.994 105.631L378.079 105.425C376.526 105.105 374.942 104.956 373.356 104.982C370.965 104.971 368.599 105.474 366.42 106.458C364.321 107.409 362.543 108.947 361.298 110.886C359.929 113.096 359.255 115.667 359.365 118.265V123.726H354.096C353.556 123.726 353.038 123.941 352.656 124.322C352.274 124.704 352.059 125.222 352.059 125.763V129.054C352.059 129.594 352.274 130.112 352.656 130.494C353.038 130.876 353.556 131.091 354.096 131.091H359.365V168.844C359.388 169.374 359.617 169.874 360.003 170.238C360.388 170.601 360.901 170.8 361.431 170.792V170.792Z" fill="#6CAADD"/>
<path d="M388.706 168.696C392.237 170.689 396.222 171.736 400.277 171.736C404.331 171.736 408.317 170.689 411.848 168.696C415.161 166.648 417.822 163.699 419.522 160.195C421.322 156.169 422.253 151.809 422.253 147.399C422.253 142.989 421.322 138.629 419.522 134.603C417.828 131.087 415.165 128.128 411.848 126.072C408.317 124.079 404.331 123.032 400.277 123.032C396.222 123.032 392.237 124.079 388.706 126.072C385.381 128.12 382.717 131.081 381.031 134.603C379.222 138.626 378.286 142.988 378.286 147.399C378.286 151.81 379.222 156.172 381.031 160.195C382.722 163.705 385.386 166.656 388.706 168.696V168.696ZM388.927 139.09C389.741 136.713 391.197 134.609 393.133 133.009C395.179 131.422 397.719 130.607 400.306 130.707C402.875 130.608 405.396 131.424 407.42 133.009C409.352 134.61 410.803 136.714 411.612 139.09C413.441 144.483 413.441 150.33 411.612 155.723C410.806 158.087 409.354 160.179 407.42 161.759C405.389 163.328 402.871 164.133 400.306 164.032C397.723 164.135 395.186 163.331 393.133 161.759C391.195 160.18 389.738 158.089 388.927 155.723C387.117 150.326 387.117 144.486 388.927 139.09Z" fill="#6CAADD"/>
<path d="M436.126 141.997C436.092 140.069 436.603 138.171 437.602 136.522C438.565 134.913 439.948 133.597 441.602 132.714C443.384 131.777 445.374 131.305 447.388 131.341C448.336 131.337 449.283 131.406 450.221 131.548C450.45 131.628 450.696 131.651 450.936 131.614C451.176 131.577 451.403 131.481 451.598 131.335C451.792 131.189 451.947 130.998 452.049 130.777C452.152 130.557 452.198 130.315 452.184 130.072V124.833C452.186 124.589 452.139 124.347 452.046 124.121C451.953 123.895 451.816 123.69 451.643 123.518C451.47 123.346 451.264 123.211 451.037 123.12C450.811 123.029 450.569 122.984 450.325 122.988C449.528 122.988 448.849 122.988 448.288 122.988C445.663 122.961 443.09 123.727 440.908 125.187C438.759 126.623 437.153 128.738 436.348 131.194H435.861V125.733C435.861 125.193 435.646 124.675 435.264 124.293C434.882 123.911 434.364 123.696 433.824 123.696H429.027C428.487 123.696 427.969 123.911 427.587 124.293C427.205 124.675 426.991 125.193 426.991 125.733V168.814C426.991 169.354 427.205 169.872 427.587 170.254C427.969 170.636 428.487 170.851 429.027 170.851H434.134C434.674 170.851 435.192 170.636 435.574 170.254C435.956 169.872 436.171 169.354 436.171 168.814L436.126 141.997Z" fill="#6CAADD"/>
<path d="M477.584 158.853C477.482 161.357 478.157 163.832 479.517 165.937C480.762 167.793 482.521 169.244 484.58 170.114C486.709 171.023 489.01 171.461 491.325 171.398C492.563 171.403 493.798 171.29 495.014 171.058L495.354 170.97C495.868 170.841 496.311 170.514 496.587 170.062C496.863 169.609 496.95 169.066 496.83 168.549C496.83 168.549 495.929 164.52 495.841 163.989C495.81 163.822 495.743 163.663 495.645 163.524C495.547 163.384 495.42 163.268 495.273 163.183C495.126 163.097 494.962 163.044 494.792 163.028C494.623 163.012 494.452 163.033 494.291 163.089C493.653 163.204 493.006 163.253 492.358 163.236C491.412 163.244 490.473 163.084 489.583 162.764C488.7 162.417 487.965 161.776 487.502 160.949C486.894 159.707 486.619 158.329 486.705 156.949V131.003H494.424C494.693 131.005 494.959 130.953 495.208 130.852C495.457 130.75 495.683 130.601 495.874 130.411C496.064 130.222 496.216 129.997 496.319 129.749C496.422 129.501 496.475 129.235 496.475 128.966V125.675C496.475 125.406 496.422 125.14 496.319 124.892C496.216 124.644 496.064 124.419 495.874 124.229C495.683 124.04 495.457 123.89 495.208 123.789C494.959 123.687 494.693 123.636 494.424 123.638H486.749V114.384C486.749 113.844 486.535 113.326 486.153 112.944C485.771 112.562 485.253 112.347 484.713 112.347H479.665C479.125 112.347 478.607 112.562 478.225 112.944C477.843 113.326 477.628 113.844 477.628 114.384V123.638H472.758C472.218 123.638 471.7 123.853 471.318 124.235C470.936 124.617 470.721 125.135 470.721 125.675V128.966C470.721 129.506 470.936 130.024 471.318 130.406C471.7 130.788 472.218 131.003 472.758 131.003H477.628L477.584 158.853Z" fill="#6CAADD"/>
<path d="M509.449 142.795C509.389 140.569 509.897 138.365 510.925 136.39C511.834 134.679 513.232 133.276 514.939 132.36C516.729 131.413 518.73 130.936 520.754 130.973C522.123 130.914 523.489 131.147 524.761 131.655C526.033 132.164 527.183 132.938 528.134 133.925C530.029 136.166 530.986 139.053 530.805 141.983V168.83C530.805 169.37 531.02 169.888 531.401 170.27C531.783 170.652 532.302 170.866 532.842 170.866H537.934C538.474 170.866 538.992 170.652 539.374 170.27C539.756 169.888 539.97 169.37 539.97 168.83V140.802C540.087 137.409 539.399 134.035 537.963 130.958C536.731 128.461 534.763 126.401 532.325 125.055C529.744 123.689 526.862 122.994 523.942 123.033C520.836 122.898 517.759 123.672 515.087 125.261C512.839 126.735 511.078 128.84 510.024 131.312H509.449V109.956C509.449 109.688 509.396 109.422 509.292 109.173C509.189 108.925 509.038 108.7 508.847 108.511C508.656 108.322 508.43 108.172 508.181 108.07C507.932 107.969 507.666 107.918 507.397 107.92H502.424C502.151 107.912 501.88 107.959 501.626 108.057C501.372 108.156 501.14 108.305 500.945 108.495C500.75 108.685 500.594 108.912 500.488 109.163C500.382 109.414 500.328 109.684 500.328 109.956V168.756C500.328 169.296 500.542 169.814 500.924 170.196C501.306 170.578 501.824 170.793 502.364 170.793H507.471C508.011 170.793 508.529 170.578 508.911 170.196C509.293 169.814 509.508 169.296 509.508 168.756L509.449 142.795Z" fill="#6CAADD"/>
<path d="M584.217 158.571L579.45 157.715C579.023 157.64 578.582 157.703 578.192 157.893C577.803 158.084 577.483 158.394 577.281 158.778C576.818 159.662 576.215 160.464 575.495 161.154C574.435 162.169 573.165 162.94 571.776 163.412C570.245 163.93 568.639 164.185 567.023 164.165C564.569 164.217 562.144 163.616 559.998 162.423C557.967 161.249 556.336 159.49 555.319 157.376C554.225 155.07 553.66 152.549 553.666 149.996H585.118C585.386 149.998 585.653 149.947 585.902 149.846C586.15 149.744 586.377 149.594 586.567 149.405C586.758 149.216 586.909 148.991 587.013 148.743C587.116 148.494 587.169 148.228 587.169 147.96V146.735C587.262 143.024 586.677 139.328 585.442 135.828C584.454 133.046 582.85 130.523 580.749 128.448C578.824 126.606 576.53 125.192 574.019 124.301C571.536 123.423 568.919 122.978 566.285 122.988C562.244 122.896 558.262 123.972 554.818 126.087C551.524 128.188 548.89 131.176 547.217 134.706C545.416 138.727 544.486 143.082 544.486 147.487C544.486 151.893 545.416 156.248 547.217 160.269C548.913 163.779 551.602 166.714 554.95 168.711C558.601 170.77 562.745 171.791 566.935 171.663C570.072 171.719 573.191 171.184 576.129 170.083C578.672 169.131 580.968 167.617 582.845 165.656C584.071 164.356 585.068 162.859 585.797 161.228C585.89 160.95 585.923 160.655 585.892 160.363C585.861 160.071 585.767 159.789 585.617 159.537C585.467 159.285 585.264 159.068 585.023 158.901C584.781 158.734 584.506 158.622 584.217 158.571V158.571ZM555.187 137.407C556.201 135.405 557.729 133.709 559.614 132.492C561.62 131.208 563.963 130.55 566.344 130.603C568.558 130.538 570.745 131.106 572.646 132.241C574.401 133.309 575.827 134.841 576.764 136.669C577.779 138.66 578.286 140.87 578.24 143.104H553.696C553.783 141.121 554.292 139.179 555.187 137.407V137.407Z" fill="#6CAADD"/>
<path d="M646.441 146.145C649.684 144.695 652.407 142.29 654.249 139.253C656.121 135.983 657.055 132.26 656.95 128.493C657.043 124.706 656.126 120.961 654.293 117.646C652.502 114.54 649.818 112.045 646.589 110.488C642.788 108.706 638.624 107.837 634.427 107.949H611.699C611.43 107.949 611.164 108.002 610.916 108.105C610.668 108.209 610.443 108.36 610.253 108.551C610.064 108.741 609.914 108.968 609.813 109.217C609.711 109.465 609.66 109.732 609.662 110.001V168.785C609.662 169.326 609.877 169.844 610.258 170.226C610.64 170.607 611.158 170.822 611.699 170.822H620.923C621.463 170.822 621.981 170.607 622.363 170.226C622.745 169.844 622.96 169.326 622.96 168.785V148.536H632.656L643.991 169.745C644.165 170.071 644.425 170.343 644.742 170.533C645.059 170.723 645.422 170.823 645.792 170.822H655.798C656.143 170.815 656.48 170.721 656.779 170.549C657.077 170.378 657.328 170.133 657.507 169.839C657.687 169.545 657.789 169.211 657.805 168.867C657.821 168.522 657.75 168.18 657.599 167.87L645.895 146.44C646.087 146.293 646.294 146.234 646.441 146.145ZM622.96 118.826H631.918C634.098 118.755 636.269 119.137 638.294 119.948C639.85 120.611 641.154 121.754 642.014 123.21C642.887 124.83 643.315 126.654 643.253 128.493C643.317 130.301 642.889 132.091 642.014 133.674C641.137 135.102 639.814 136.201 638.25 136.803C636.229 137.565 634.077 137.921 631.918 137.851H622.901L622.96 118.826Z" fill="#6CAADD"/>
<path d="M698.776 129.01C696.767 127.049 694.362 125.539 691.721 124.582C688.931 123.572 685.981 123.072 683.014 123.106C678.784 123.002 674.607 124.064 670.941 126.176C667.515 128.202 664.748 131.175 662.971 134.736C661.114 138.762 660.152 143.143 660.152 147.577C660.152 152.01 661.114 156.391 662.971 160.417C664.761 163.96 667.567 166.889 671.029 168.829C674.87 170.881 679.178 171.899 683.53 171.781C687.057 171.854 690.564 171.248 693.862 169.995C696.659 168.917 699.163 167.193 701.167 164.963C702.436 163.497 703.435 161.818 704.119 160.004C704.235 159.702 704.278 159.378 704.247 159.056C704.216 158.735 704.11 158.425 703.938 158.152C703.766 157.878 703.533 157.648 703.257 157.48C702.981 157.313 702.67 157.211 702.348 157.185L694.171 156.653C693.792 156.623 693.412 156.703 693.077 156.884C692.742 157.065 692.466 157.338 692.282 157.672C691.892 158.375 691.394 159.012 690.806 159.561C689.927 160.404 688.867 161.035 687.707 161.406C686.422 161.831 685.076 162.04 683.722 162.026C681.738 162.08 679.776 161.6 678.04 160.638C676.446 159.727 675.161 158.36 674.35 156.712C673.436 154.829 672.985 152.754 673.037 150.661V150.661H703.115C703.656 150.661 704.174 150.447 704.556 150.065C704.937 149.683 705.152 149.165 705.152 148.625V147.149C705.228 143.572 704.653 140.011 703.455 136.64C702.485 133.779 700.887 131.172 698.776 129.01V129.01ZM673.096 142.485C673.155 140.854 673.601 139.261 674.395 137.836C675.239 136.324 676.472 135.066 677.966 134.19C679.54 133.306 681.31 132.83 683.115 132.807C684.92 132.784 686.702 133.214 688.297 134.057C689.715 134.87 690.883 136.054 691.677 137.482C692.522 139.012 692.949 140.737 692.917 142.485H673.096Z" fill="#6CAADD"/>
<path d="M736.47 143.444L727.94 141.717C726.268 141.47 724.679 140.827 723.305 139.843C722.879 139.502 722.535 139.068 722.299 138.574C722.064 138.081 721.944 137.541 721.948 136.994C721.952 136.291 722.15 135.602 722.52 135.003C722.889 134.405 723.416 133.919 724.043 133.6C725.601 132.713 727.373 132.274 729.165 132.331C730.507 132.296 731.842 132.553 733.076 133.083C734.101 133.537 735.01 134.218 735.732 135.076C736.087 135.529 736.385 136.025 736.618 136.552C736.783 136.944 737.063 137.277 737.421 137.507C737.78 137.736 738.2 137.851 738.625 137.836L746.684 137.334C746.983 137.319 747.276 137.238 747.541 137.096C747.805 136.954 748.035 136.755 748.213 136.514C748.391 136.272 748.513 135.994 748.57 135.699C748.627 135.404 748.618 135.101 748.543 134.81C747.688 131.584 745.736 128.755 743.023 126.811C739.599 124.302 734.906 123.047 728.943 123.047C725.351 122.971 721.776 123.572 718.405 124.818C715.635 125.819 713.2 127.579 711.38 129.895C709.706 132.16 708.834 134.917 708.901 137.732C708.844 139.331 709.114 140.925 709.692 142.417C710.27 143.909 711.146 145.267 712.266 146.411C715.157 149 718.753 150.67 722.597 151.207L730.759 152.831C732.387 153.074 733.94 153.679 735.304 154.602C735.765 154.943 736.139 155.388 736.396 155.901C736.652 156.414 736.784 156.98 736.78 157.554C736.757 158.266 736.547 158.96 736.172 159.566C735.796 160.172 735.268 160.669 734.64 161.007C732.894 161.913 730.951 162.374 728.984 162.348C727.017 162.323 725.086 161.811 723.364 160.86C722.282 160.146 721.446 159.115 720.974 157.908C720.816 157.503 720.537 157.157 720.175 156.916C719.813 156.676 719.386 156.553 718.952 156.565L710.096 157.037C709.793 157.051 709.497 157.133 709.229 157.276C708.961 157.42 708.729 157.621 708.55 157.866C708.37 158.111 708.247 158.393 708.19 158.691C708.134 158.989 708.144 159.297 708.222 159.59C709.202 162.944 711.315 165.854 714.199 167.826C717.889 170.433 722.858 171.737 729.106 171.737C732.815 171.807 736.501 171.145 739.953 169.789C742.849 168.653 745.394 166.774 747.333 164.343C749.141 162.022 750.099 159.152 750.049 156.21C750.11 154.679 749.841 153.152 749.261 151.734C748.68 150.315 747.801 149.039 746.684 147.99C743.752 145.58 740.223 144.009 736.47 143.444V143.444Z" fill="#6CAADD"/>
<path d="M777.117 160.756C776.507 160.862 775.89 160.916 775.272 160.919C774.481 160.934 773.695 160.799 772.955 160.52C772.287 160.261 771.736 159.768 771.405 159.133C770.994 158.253 770.806 157.284 770.859 156.314V133.497H777.692C778.232 133.497 778.751 133.282 779.132 132.9C779.514 132.518 779.729 132 779.729 131.46V125.704C779.729 125.164 779.514 124.646 779.132 124.264C778.751 123.882 778.232 123.667 777.692 123.667H770.859V114.413C770.859 113.873 770.644 113.355 770.262 112.973C769.88 112.591 769.362 112.377 768.822 112.377H759.819C759.279 112.377 758.761 112.591 758.379 112.973C757.997 113.355 757.782 113.873 757.782 114.413V123.667H753.355C752.815 123.667 752.297 123.882 751.915 124.264C751.533 124.646 751.318 125.164 751.318 125.704V131.46C751.318 132 751.533 132.518 751.915 132.9C752.297 133.282 752.815 133.497 753.355 133.497H757.782V158.056C757.654 160.749 758.327 163.419 759.716 165.73C761.044 167.744 762.969 169.292 765.221 170.158C767.859 171.164 770.682 171.597 773.501 171.427C774.955 171.388 776.403 171.215 777.825 170.911L778.696 170.704C779.202 170.571 779.637 170.249 779.912 169.804C780.187 169.359 780.28 168.825 780.172 168.313C780.172 168.313 778.902 162.409 778.784 161.701C778.666 160.993 778.253 160.535 777.117 160.756Z" fill="#6CAADD"/>
<path d="M837.614 126.117C833.803 124.116 829.564 123.07 825.26 123.07C820.956 123.07 816.717 124.116 812.907 126.117C809.456 128.117 806.666 131.082 804.878 134.648C803.012 138.64 802.044 142.993 802.044 147.399C802.044 151.806 803.012 156.159 804.878 160.151C806.666 163.716 809.456 166.682 812.907 168.682C816.717 170.683 820.956 171.729 825.26 171.729C829.564 171.729 833.803 170.683 837.614 168.682C841.057 166.672 843.845 163.71 845.642 160.151C847.499 156.156 848.461 151.804 848.461 147.399C848.461 142.994 847.499 138.642 845.642 134.648C843.845 131.089 841.057 128.126 837.614 126.117V126.117ZM834.057 154.675C833.428 156.633 832.287 158.386 830.751 159.753C829.228 161.016 827.296 161.677 825.319 161.612C823.315 161.677 821.355 161.017 819.799 159.753C818.24 158.401 817.086 156.643 816.464 154.675C814.968 149.9 814.968 144.781 816.464 140.005C817.09 138.031 818.243 136.265 819.799 134.898C821.355 133.634 823.315 132.974 825.319 133.039C827.296 132.974 829.228 133.635 830.751 134.898C832.284 136.279 833.425 138.041 834.057 140.005C835.533 144.784 835.533 149.897 834.057 154.675V154.675Z" fill="#6CAADD"/>
<path d="M869.301 116.774C869.835 116.277 870.47 115.9 871.163 115.671C871.856 115.442 872.59 115.365 873.315 115.446C874.084 115.41 874.853 115.48 875.603 115.653C875.837 115.746 876.09 115.787 876.342 115.77C876.594 115.754 876.839 115.682 877.06 115.559C877.281 115.436 877.471 115.265 877.617 115.059C877.763 114.853 877.862 114.617 877.905 114.369L879.381 108.273C879.444 108.007 879.454 107.732 879.409 107.462C879.364 107.193 879.266 106.935 879.12 106.704C878.974 106.474 878.784 106.274 878.56 106.118C878.336 105.961 878.084 105.851 877.817 105.794L876.119 105.469C874.302 105.148 872.459 104.995 870.614 105.011C867.869 104.963 865.149 105.538 862.659 106.694C860.36 107.793 858.442 109.556 857.154 111.756C855.729 114.356 855.035 117.294 855.147 120.257V123.667H850.513C849.973 123.667 849.454 123.881 849.072 124.263C848.691 124.645 848.476 125.163 848.476 125.703V131.459C848.476 132 848.691 132.518 849.072 132.9C849.454 133.282 849.973 133.496 850.513 133.496H855.147V170.821H868.194V133.496H875.573C876.113 133.496 876.632 133.282 877.014 132.9C877.396 132.518 877.61 132 877.61 131.459V125.703C877.61 125.163 877.396 124.645 877.014 124.263C876.632 123.881 876.113 123.667 875.573 123.667H868.194V120.508C868.101 119.171 868.494 117.845 869.301 116.774V116.774Z" fill="#6CAADD"/>
<path d="M940.277 147.651C940.315 149.877 939.771 152.075 938.697 154.027C937.663 155.887 936.13 157.42 934.27 158.454C932.181 159.502 929.876 160.048 927.54 160.048C925.203 160.048 922.898 159.502 920.81 158.454C918.951 157.419 917.417 155.886 916.382 154.027C915.308 152.075 914.764 149.877 914.803 147.651V110.001C914.805 109.732 914.753 109.466 914.652 109.217C914.55 108.968 914.401 108.742 914.211 108.551C914.022 108.36 913.797 108.209 913.549 108.106C913.301 108.002 913.035 107.949 912.766 107.949H903.556C903.288 107.949 903.022 108.002 902.773 108.106C902.525 108.209 902.3 108.36 902.111 108.551C901.922 108.742 901.772 108.968 901.67 109.217C901.569 109.466 901.518 109.732 901.52 110.001V148.787C901.382 152.976 902.482 157.112 904.682 160.679C906.882 164.246 910.083 167.086 913.888 168.845C918.199 170.733 922.855 171.708 927.562 171.708C932.269 171.708 936.924 170.733 941.236 168.845C945.043 167.088 948.249 164.249 950.454 160.682C952.658 157.115 953.764 152.978 953.633 148.787V110.001C953.635 109.732 953.584 109.466 953.483 109.217C953.381 108.968 953.231 108.742 953.042 108.551C952.853 108.36 952.628 108.209 952.379 108.106C952.131 108.002 951.865 107.949 951.597 107.949H942.387C942.118 107.949 941.852 108.002 941.604 108.106C941.356 108.209 941.131 108.36 940.942 108.551C940.752 108.742 940.603 108.968 940.501 109.217C940.4 109.466 940.348 109.732 940.35 110.001L940.277 147.651Z" fill="#6CAADD"/>
<path d="M996.626 147.99C993.682 145.572 990.137 144.001 986.369 143.444L977.838 141.717C976.167 141.467 974.579 140.825 973.204 139.843C972.779 139.501 972.437 139.067 972.204 138.573C971.972 138.08 971.854 137.54 971.861 136.994C971.865 136.293 972.062 135.606 972.429 135.007C972.795 134.409 973.318 133.922 973.942 133.6C975.499 132.713 977.271 132.274 979.063 132.33C980.406 132.296 981.74 132.553 982.974 133.083C984.005 133.527 984.916 134.21 985.631 135.076C985.996 135.522 986.295 136.019 986.516 136.552C986.682 136.943 986.963 137.275 987.321 137.504C987.679 137.733 988.098 137.849 988.523 137.836L996.582 137.334C996.882 137.319 997.174 137.238 997.439 137.096C997.703 136.954 997.933 136.755 998.111 136.514C998.289 136.272 998.411 135.994 998.468 135.699C998.525 135.404 998.516 135.101 998.441 134.81C997.586 131.584 995.634 128.755 992.922 126.811C989.498 124.302 984.809 123.047 978.856 123.047C975.259 122.972 971.679 123.572 968.304 124.818C965.558 125.829 963.147 127.581 961.337 129.88C959.674 132.149 958.807 134.905 958.873 137.717C958.82 139.322 959.095 140.921 959.681 142.415C960.268 143.91 961.153 145.269 962.282 146.41C965.149 148.992 968.72 150.662 972.54 151.207L980.701 152.831C982.33 153.071 983.884 153.677 985.247 154.602C985.71 154.941 986.085 155.386 986.341 155.899C986.598 156.413 986.729 156.98 986.723 157.553C986.707 158.266 986.502 158.961 986.128 159.568C985.755 160.175 985.226 160.672 984.598 161.007C982.915 161.978 980.988 162.444 979.048 162.35C977.031 162.435 975.033 161.921 973.307 160.874C972.224 160.161 971.389 159.13 970.916 157.922C970.76 157.516 970.482 157.169 970.119 156.928C969.757 156.688 969.329 156.566 968.894 156.579L960.039 157.052C959.735 157.066 959.439 157.148 959.171 157.291C958.904 157.435 958.672 157.636 958.492 157.881C958.312 158.126 958.19 158.408 958.133 158.706C958.076 159.004 958.087 159.311 958.164 159.605C959.145 162.959 961.257 165.869 964.142 167.84C967.841 170.448 972.81 171.752 979.048 171.752C982.757 171.823 986.444 171.161 989.896 169.803C992.79 168.664 995.334 166.787 997.276 164.357C999.077 162.033 1000.03 159.166 999.991 156.225C1000.05 154.691 999.786 153.162 999.205 151.741C998.624 150.32 997.745 149.041 996.626 147.99V147.99Z" fill="#6CAADD"/>
<path d="M121.864 276.835C119.331 276.834 116.842 276.167 114.647 274.902L7.21712 212.914C5.02046 211.642 3.19713 209.815 1.9303 207.616C0.663468 205.416 -0.00225538 202.922 5.74073e-06 200.384V76.4088C0.00291928 73.8756 0.671097 71.3876 1.93767 69.1937C3.20425 66.9999 5.02479 65.1772 7.21712 63.908L114.647 1.9205C116.842 0.662107 119.327 0 121.857 0C124.387 0 126.872 0.662107 129.067 1.9205L236.512 63.908C238.702 65.1795 240.521 67.0027 241.787 69.196C243.054 71.3893 243.723 73.8762 243.729 76.4088V200.458C243.723 202.99 243.054 205.477 241.787 207.67C240.521 209.864 238.702 211.687 236.512 212.958L129.067 274.946C126.874 276.198 124.39 276.85 121.864 276.835V276.835ZM121.864 8.73912C120.886 8.73343 119.923 8.98812 119.075 9.47707L11.6448 71.4646C10.7899 71.9563 10.0811 72.6665 9.59097 73.5223C9.10083 74.3781 8.84696 75.3488 8.85536 76.335V200.384C8.85479 201.363 9.11238 202.324 9.60213 203.171C10.0919 204.019 10.7965 204.722 11.6448 205.21L119.075 267.197C119.922 267.683 120.881 267.938 121.857 267.938C122.833 267.938 123.792 267.683 124.639 267.197L232.084 205.21C232.93 204.72 233.633 204.016 234.123 203.169C234.612 202.322 234.871 201.362 234.874 200.384V76.4088C234.871 75.4307 234.612 74.4703 234.123 73.6235C233.633 72.7767 232.93 72.073 232.084 71.5826L124.639 9.59514C123.808 9.06462 122.85 8.76883 121.864 8.73912V8.73912Z" fill="#6CAADD"/>
<path d="M121.864 243.17C119.497 243.176 117.169 242.554 115.12 241.369L35.9823 195.616C33.9439 194.438 32.2508 192.745 31.0723 190.706C29.8938 188.668 29.2713 186.356 29.267 184.001V92.658C29.2768 90.303 29.9051 87.992 31.0888 85.9561C32.2724 83.9203 33.9701 82.231 36.0118 81.0575L115.12 35.3048C117.16 34.1302 119.473 33.512 121.828 33.512C124.182 33.512 126.495 34.1302 128.536 35.3048L207.688 81.0575C209.724 82.2383 211.415 83.932 212.594 85.9699C213.772 88.0078 214.396 90.3188 214.403 92.6727V184.075C214.396 186.429 213.772 188.74 212.594 190.778C211.415 192.816 209.724 194.509 207.688 195.69L128.536 241.443C126.501 242.591 124.201 243.186 121.864 243.17V243.17ZM121.864 42.4481C121.06 42.4474 120.271 42.6614 119.577 43.068L40.4395 88.8207C39.746 89.2228 39.1699 89.7995 38.7685 90.4935C38.3671 91.1874 38.1545 91.9744 38.1518 92.776V184.178C38.1526 184.978 38.3646 185.764 38.7663 186.456C39.1679 187.148 39.7451 187.721 40.4395 188.119L119.577 233.871C120.27 234.273 121.056 234.485 121.857 234.485C122.658 234.485 123.445 234.273 124.137 233.871L203.289 188.119C203.982 187.719 204.557 187.145 204.959 186.453C205.36 185.762 205.573 184.978 205.577 184.178V92.658C205.571 91.8569 205.358 91.0711 204.957 90.3776C204.556 89.6842 203.981 89.107 203.289 88.7026L124.137 43.0237C123.45 42.6156 122.664 42.4014 121.864 42.4038V42.4481Z" fill="#6CAADD"/>
<path d="M121.85 209.461C119.668 209.459 117.526 208.883 115.636 207.793L64.8212 178.467C62.9362 177.374 61.3715 175.804 60.2836 173.916C59.1958 172.028 58.6229 169.887 58.6224 167.708V109.1C58.6244 106.921 59.1979 104.781 60.2856 102.893C61.3733 101.005 62.9372 99.4354 64.8212 98.3408L115.651 68.9263C117.538 67.8383 119.679 67.2656 121.857 67.2656C124.036 67.2656 126.176 67.8383 128.063 68.9263L178.893 98.267C180.777 99.3616 182.341 100.931 183.429 102.819C184.516 104.707 185.09 106.847 185.092 109.026V167.693C185.091 169.872 184.518 172.013 183.43 173.901C182.343 175.789 180.778 177.359 178.893 178.452L128.063 207.793C126.175 208.885 124.031 209.461 121.85 209.461ZM121.85 76.1139C121.229 76.1166 120.619 76.2792 120.079 76.5862L69.2489 105.927C68.7087 106.244 68.261 106.697 67.9503 107.241C67.6396 107.784 67.4767 108.4 67.4778 109.026V167.693C67.4782 168.319 67.6417 168.934 67.9523 169.478C68.2628 170.021 68.7097 170.474 69.2489 170.792L120.079 200.133C120.619 200.445 121.233 200.61 121.857 200.61C122.481 200.61 123.095 200.445 123.636 200.133L174.465 170.792C175.004 170.474 175.451 170.021 175.762 169.478C176.072 168.934 176.236 168.319 176.236 167.693V109.1C176.239 108.472 176.075 107.854 175.761 107.31C175.448 106.765 174.995 106.314 174.45 106.001L123.636 76.6304C123.095 76.3062 122.48 76.1282 121.85 76.1139V76.1139Z" fill="#6CAADD"/>
</svg>
